<svg id="visual" viewBox="0 0 2048 200" width="2048" height="200" xmlns="http://www.w3.org/2000/svg" xmlns:xlink="http://www.w3.org/1999/xlink" version="1.1"><path d="M0 27L38 26C76 25 152 23 227.8 21C303.7 19 379.3 17 455.2 18C531 19 607 23 682.8 24.7C758.7 26.3 834.3 25.7 910.2 25.3C986 25 1062 25 1137.8 24C1213.7 23 1289.3 21 1365.2 19C1441 17 1517 15 1592.8 13.7C1668.7 12.3 1744.3 11.7 1820.2 14C1896 16.3 1972 21.7 2010 24.3L2048 27L2048 0L2010 0C1972 0 1896 0 1820.2 0C1744.3 0 1668.7 0 1592.8 0C1517 0 1441 0 1365.2 0C1289.3 0 1213.7 0 1137.8 0C1062 0 986 0 910.2 0C834.3 0 758.7 0 682.8 0C607 0 531 0 455.2 0C379.3 0 303.7 0 227.8 0C152 0 76 0 38 0L0 0Z" fill="#caf3ff"></path><path d="M0 45L38 44.3C76 43.7 152 42.3 227.8 40.3C303.7 38.3 379.3 35.7 455.2 36.7C531 37.7 607 42.3 682.8 43.3C758.7 44.3 834.3 41.7 910.2 40.3C986 39 1062 39 1137.8 39C1213.7 39 1289.3 39 1365.2 36.7C1441 34.3 1517 29.7 1592.8 28.3C1668.7 27 1744.3 29 1820.2 32C1896 35 1972 39 2010 41L2048 43L2048 25L2010 22.3C1972 19.7 1896 14.3 1820.2 12C1744.3 9.7 1668.7 10.3 1592.8 11.7C1517 13 1441 15 1365.2 17C1289.3 19 1213.7 21 1137.8 22C1062 23 986 23 910.2 23.3C834.3 23.7 758.7 24.3 682.8 22.7C607 21 531 17 455.2 16C379.3 15 303.7 17 227.8 19C152 21 76 23 38 24L0 25Z" fill="#b7e9f6"></path><path d="M0 67L38 66.3C76 65.7 152 64.3 227.8 62.7C303.7 61 379.3 59 455.2 61C531 63 607 69 682.8 70C758.7 71 834.3 67 910.2 64.3C986 61.7 1062 60.3 1137.8 59C1213.7 57.7 1289.3 56.3 1365.2 55.7C1441 55 1517 55 1592.8 54C1668.7 53 1744.3 51 1820.2 53.3C1896 55.7 1972 62.3 2010 65.7L2048 69L2048 41L2010 39C1972 37 1896 33 1820.2 30C1744.3 27 1668.7 25 1592.8 26.3C1517 27.7 1441 32.3 1365.2 34.7C1289.3 37 1213.7 37 1137.8 37C1062 37 986 37 910.2 38.3C834.3 39.7 758.7 42.3 682.8 41.3C607 40.3 531 35.7 455.2 34.7C379.3 33.7 303.7 36.3 227.8 38.3C152 40.3 76 41.7 38 42.3L0 43Z" fill="#a3dfed"></path><path d="M0 125L38 123.7C76 122.3 152 119.7 227.8 117.3C303.7 115 379.3 113 455.2 114.3C531 115.7 607 120.3 682.8 117.7C758.7 115 834.3 105 910.2 101C986 97 1062 99 1137.8 102.7C1213.7 106.3 1289.3 111.7 1365.2 110C1441 108.3 1517 99.7 1592.8 98.7C1668.7 97.7 1744.3 104.3 1820.2 109.3C1896 114.3 1972 117.7 2010 119.3L2048 121L2048 67L2010 63.7C1972 60.3 1896 53.7 1820.2 51.3C1744.3 49 1668.7 51 1592.8 52C1517 53 1441 53 1365.2 53.7C1289.3 54.3 1213.7 55.7 1137.8 57C1062 58.3 986 59.7 910.2 62.3C834.3 65 758.7 69 682.8 68C607 67 531 61 455.2 59C379.3 57 303.7 59 227.8 60.7C152 62.3 76 63.7 38 64.3L0 65Z" fill="#8ed5e4"></path><path d="M0 155L38 156.7C76 158.3 152 161.7 227.8 162.7C303.7 163.7 379.3 162.3 455.2 161C531 159.7 607 158.3 682.8 156C758.7 153.7 834.3 150.3 910.2 148.7C986 147 1062 147 1137.8 149C1213.7 151 1289.3 155 1365.2 155.7C1441 156.3 1517 153.7 1592.8 153.3C1668.7 153 1744.3 155 1820.2 155.3C1896 155.7 1972 154.3 2010 153.7L2048 153L2048 119L2010 117.3C1972 115.7 1896 112.3 1820.2 107.3C1744.3 102.3 1668.7 95.7 1592.8 96.7C1517 97.7 1441 106.3 1365.2 108C1289.3 109.7 1213.7 104.3 1137.8 100.7C1062 97 986 95 910.2 99C834.3 103 758.7 113 682.8 115.7C607 118.3 531 113.7 455.2 112.3C379.3 111 303.7 113 227.8 115.3C152 117.7 76 120.3 38 121.7L0 123Z" fill="#79cbda"></path><path d="M0 181L38 182C76 183 152 185 227.8 185.3C303.7 185.7 379.3 184.3 455.2 184.7C531 185 607 187 682.8 187.3C758.7 187.7 834.3 186.3 910.2 185C986 183.7 1062 182.3 1137.8 181.3C1213.7 180.3 1289.3 179.7 1365.2 180.3C1441 181 1517 183 1592.8 183C1668.7 183 1744.3 181 1820.2 181C1896 181 1972 183 2010 184L2048 185L2048 151L2010 151.7C1972 152.3 1896 153.7 1820.2 153.3C1744.3 153 1668.7 151 1592.8 151.3C1517 151.7 1441 154.3 1365.2 153.7C1289.3 153 1213.7 149 1137.8 147C1062 145 986 145 910.2 146.7C834.3 148.3 758.7 151.7 682.8 154C607 156.3 531 157.7 455.2 159C379.3 160.3 303.7 161.7 227.8 160.7C152 159.7 76 156.3 38 154.7L0 153Z" fill="#62c1d0"></path><path d="M0 201L38 201C76 201 152 201 227.8 201C303.7 201 379.3 201 455.2 201C531 201 607 201 682.8 201C758.7 201 834.3 201 910.2 201C986 201 1062 201 1137.8 201C1213.7 201 1289.3 201 1365.2 201C1441 201 1517 201 1592.8 201C1668.7 201 1744.3 201 1820.2 201C1896 201 1972 201 2010 201L2048 201L2048 183L2010 182C1972 181 1896 179 1820.2 179C1744.3 179 1668.7 181 1592.8 181C1517 181 1441 179 1365.2 178.3C1289.3 177.7 1213.7 178.3 1137.8 179.3C1062 180.3 986 181.7 910.2 183C834.3 184.3 758.7 185.7 682.8 185.3C607 185 531 183 455.2 182.7C379.3 182.3 303.7 183.7 227.8 183.3C152 183 76 181 38 180L0 179Z" fill="#47b7c6"></path></svg>